<mxfile host="app.diagrams.net" agent="Mozilla/5.0 (Windows NT 10.0; Win64; x64) AppleWebKit/537.36 (KHTML, like Gecko) Chrome/134.0.0.0 Safari/537.36 Edg/134.0.0.0" version="26.1.1">
  <diagram id="C5RBs43oDa-KdzZeNtuy" name="Page-1">
    <mxGraphModel dx="17332" dy="6959" grid="1" gridSize="10" guides="1" tooltips="1" connect="1" arrows="1" fold="1" page="1" pageScale="1" pageWidth="827" pageHeight="1169" math="0" shadow="0">
      <root>
        <mxCell id="WIyWlLk6GJQsqaUBKTNV-0" />
        <mxCell id="WIyWlLk6GJQsqaUBKTNV-1" parent="WIyWlLk6GJQsqaUBKTNV-0" />
        <mxCell id="5WrRKkwtKEH5XO7ipjnT-20" value="" style="group" parent="WIyWlLk6GJQsqaUBKTNV-1" vertex="1" connectable="0">
          <mxGeometry x="-3930" y="-230" width="3220" height="1814" as="geometry" />
        </mxCell>
        <mxCell id="7jp_HMipScZkQKz6TcJ7-35" value="" style="group" vertex="1" connectable="0" parent="5WrRKkwtKEH5XO7ipjnT-20">
          <mxGeometry x="-210" y="880" width="1450" height="854" as="geometry" />
        </mxCell>
        <mxCell id="7jp_HMipScZkQKz6TcJ7-32" value="" style="shape=folder;fontStyle=1;spacingTop=10;tabWidth=90;tabHeight=20;tabPosition=left;html=1;whiteSpace=wrap;fillColor=#FFFFCC;" vertex="1" parent="7jp_HMipScZkQKz6TcJ7-35">
          <mxGeometry y="70" width="1450" height="630" as="geometry" />
        </mxCell>
        <mxCell id="7jp_HMipScZkQKz6TcJ7-33" value="" style="group" vertex="1" connectable="0" parent="7jp_HMipScZkQKz6TcJ7-35">
          <mxGeometry x="98" y="440" width="1230" height="220" as="geometry" />
        </mxCell>
        <mxCell id="7jp_HMipScZkQKz6TcJ7-0" value="" style="shape=folder;fontStyle=1;spacingTop=10;tabWidth=90;tabHeight=20;tabPosition=left;html=1;whiteSpace=wrap;fillColor=#FFF2CC;" vertex="1" parent="7jp_HMipScZkQKz6TcJ7-33">
          <mxGeometry y="5" width="1230" height="215" as="geometry" />
        </mxCell>
        <mxCell id="7jp_HMipScZkQKz6TcJ7-4" value="dto" style="text;html=1;align=center;verticalAlign=middle;resizable=0;points=[];autosize=1;strokeColor=none;fillColor=none;" vertex="1" parent="7jp_HMipScZkQKz6TcJ7-33">
          <mxGeometry x="20" width="40" height="30" as="geometry" />
        </mxCell>
        <mxCell id="7jp_HMipScZkQKz6TcJ7-5" value="UsuarioDTO" style="swimlane;fontStyle=1;align=center;verticalAlign=top;childLayout=stackLayout;horizontal=1;startSize=26;horizontalStack=0;resizeParent=1;resizeParentMax=0;resizeLast=0;collapsible=1;marginBottom=0;whiteSpace=wrap;html=1;fillColor=#FFD966;" vertex="1" parent="7jp_HMipScZkQKz6TcJ7-33">
          <mxGeometry x="30" y="55" width="320" height="90" as="geometry" />
        </mxCell>
        <mxCell id="7jp_HMipScZkQKz6TcJ7-6" value="&lt;div style=&quot;line-height: 200%;&quot;&gt;&lt;code data-end=&quot;3083&quot; data-start=&quot;3067&quot;&gt;- nome: String&lt;/code&gt;&lt;br&gt;&lt;code data-end=&quot;3104&quot; data-start=&quot;3087&quot;&gt;- email: String&lt;/code&gt;&lt;/div&gt;" style="text;strokeColor=none;fillColor=none;align=left;verticalAlign=top;spacingLeft=4;spacingRight=4;overflow=hidden;rotatable=0;points=[[0,0.5],[1,0.5]];portConstraint=eastwest;whiteSpace=wrap;html=1;" vertex="1" parent="7jp_HMipScZkQKz6TcJ7-5">
          <mxGeometry y="26" width="320" height="54" as="geometry" />
        </mxCell>
        <mxCell id="7jp_HMipScZkQKz6TcJ7-7" value="" style="line;strokeWidth=1;fillColor=none;align=left;verticalAlign=middle;spacingTop=-1;spacingLeft=3;spacingRight=3;rotatable=0;labelPosition=right;points=[];portConstraint=eastwest;strokeColor=inherit;" vertex="1" parent="7jp_HMipScZkQKz6TcJ7-5">
          <mxGeometry y="80" width="320" height="8" as="geometry" />
        </mxCell>
        <mxCell id="7jp_HMipScZkQKz6TcJ7-8" value="&lt;div style=&quot;line-height: 200%;&quot;&gt;&lt;br&gt;&lt;/div&gt;" style="text;strokeColor=none;fillColor=none;align=left;verticalAlign=top;spacingLeft=4;spacingRight=4;overflow=hidden;rotatable=0;points=[[0,0.5],[1,0.5]];portConstraint=eastwest;whiteSpace=wrap;html=1;" vertex="1" parent="7jp_HMipScZkQKz6TcJ7-5">
          <mxGeometry y="88" width="320" height="2" as="geometry" />
        </mxCell>
        <mxCell id="7jp_HMipScZkQKz6TcJ7-9" value="TransacaoDTO" style="swimlane;fontStyle=1;align=center;verticalAlign=top;childLayout=stackLayout;horizontal=1;startSize=26;horizontalStack=0;resizeParent=1;resizeParentMax=0;resizeLast=0;collapsible=1;marginBottom=0;whiteSpace=wrap;html=1;fillColor=#FFD966;" vertex="1" parent="7jp_HMipScZkQKz6TcJ7-33">
          <mxGeometry x="450" y="55" width="320" height="140" as="geometry" />
        </mxCell>
        <mxCell id="7jp_HMipScZkQKz6TcJ7-10" value="&lt;div style=&quot;line-height: 200%;&quot;&gt;&lt;code data-end=&quot;3210&quot; data-start=&quot;3189&quot;&gt;- descricao: String&lt;/code&gt;&lt;br&gt;&lt;code data-end=&quot;3235&quot; data-start=&quot;3214&quot;&gt;- valor: BigDecimal&lt;/code&gt;&lt;br&gt;&lt;code data-end=&quot;3273&quot; data-start=&quot;3239&quot;&gt;- tipo: String (RECEITA/DESPESA)&lt;/code&gt;&lt;br&gt;&lt;code data-end=&quot;3300&quot; data-start=&quot;3277&quot;&gt;- data: LocalDateTime&lt;/code&gt;&lt;/div&gt;" style="text;strokeColor=none;fillColor=none;align=left;verticalAlign=top;spacingLeft=4;spacingRight=4;overflow=hidden;rotatable=0;points=[[0,0.5],[1,0.5]];portConstraint=eastwest;whiteSpace=wrap;html=1;" vertex="1" parent="7jp_HMipScZkQKz6TcJ7-9">
          <mxGeometry y="26" width="320" height="104" as="geometry" />
        </mxCell>
        <mxCell id="7jp_HMipScZkQKz6TcJ7-11" value="" style="line;strokeWidth=1;fillColor=none;align=left;verticalAlign=middle;spacingTop=-1;spacingLeft=3;spacingRight=3;rotatable=0;labelPosition=right;points=[];portConstraint=eastwest;strokeColor=inherit;" vertex="1" parent="7jp_HMipScZkQKz6TcJ7-9">
          <mxGeometry y="130" width="320" height="8" as="geometry" />
        </mxCell>
        <mxCell id="7jp_HMipScZkQKz6TcJ7-12" value="&lt;div style=&quot;line-height: 200%;&quot;&gt;&lt;br&gt;&lt;/div&gt;" style="text;strokeColor=none;fillColor=none;align=left;verticalAlign=top;spacingLeft=4;spacingRight=4;overflow=hidden;rotatable=0;points=[[0,0.5],[1,0.5]];portConstraint=eastwest;whiteSpace=wrap;html=1;" vertex="1" parent="7jp_HMipScZkQKz6TcJ7-9">
          <mxGeometry y="138" width="320" height="2" as="geometry" />
        </mxCell>
        <mxCell id="7jp_HMipScZkQKz6TcJ7-13" value="InsightDTO" style="swimlane;fontStyle=1;align=center;verticalAlign=top;childLayout=stackLayout;horizontal=1;startSize=26;horizontalStack=0;resizeParent=1;resizeParentMax=0;resizeLast=0;collapsible=1;marginBottom=0;whiteSpace=wrap;html=1;fillColor=#FFD966;" vertex="1" parent="7jp_HMipScZkQKz6TcJ7-33">
          <mxGeometry x="840" y="55" width="320" height="90" as="geometry" />
        </mxCell>
        <mxCell id="7jp_HMipScZkQKz6TcJ7-14" value="&lt;div style=&quot;line-height: 200%;&quot;&gt;&lt;code data-end=&quot;3404&quot; data-start=&quot;3383&quot;&gt;- descricao: String&lt;/code&gt;&lt;br&gt;&lt;code data-end=&quot;3438&quot; data-start=&quot;3408&quot;&gt;- dataCriacao: LocalDateTime&lt;/code&gt;&lt;/div&gt;" style="text;strokeColor=none;fillColor=none;align=left;verticalAlign=top;spacingLeft=4;spacingRight=4;overflow=hidden;rotatable=0;points=[[0,0.5],[1,0.5]];portConstraint=eastwest;whiteSpace=wrap;html=1;" vertex="1" parent="7jp_HMipScZkQKz6TcJ7-13">
          <mxGeometry y="26" width="320" height="54" as="geometry" />
        </mxCell>
        <mxCell id="7jp_HMipScZkQKz6TcJ7-15" value="" style="line;strokeWidth=1;fillColor=none;align=left;verticalAlign=middle;spacingTop=-1;spacingLeft=3;spacingRight=3;rotatable=0;labelPosition=right;points=[];portConstraint=eastwest;strokeColor=inherit;" vertex="1" parent="7jp_HMipScZkQKz6TcJ7-13">
          <mxGeometry y="80" width="320" height="8" as="geometry" />
        </mxCell>
        <mxCell id="7jp_HMipScZkQKz6TcJ7-16" value="&lt;div style=&quot;line-height: 200%;&quot;&gt;&lt;br&gt;&lt;/div&gt;" style="text;strokeColor=none;fillColor=none;align=left;verticalAlign=top;spacingLeft=4;spacingRight=4;overflow=hidden;rotatable=0;points=[[0,0.5],[1,0.5]];portConstraint=eastwest;whiteSpace=wrap;html=1;" vertex="1" parent="7jp_HMipScZkQKz6TcJ7-13">
          <mxGeometry y="88" width="320" height="2" as="geometry" />
        </mxCell>
        <mxCell id="7jp_HMipScZkQKz6TcJ7-1" value="" style="group" vertex="1" connectable="0" parent="7jp_HMipScZkQKz6TcJ7-35">
          <mxGeometry x="60" y="124.00209302325584" width="1340" height="291.62790697674427" as="geometry" />
        </mxCell>
        <mxCell id="7jp_HMipScZkQKz6TcJ7-2" value="" style="group" vertex="1" connectable="0" parent="7jp_HMipScZkQKz6TcJ7-1">
          <mxGeometry width="1340" height="291.6279069767442" as="geometry" />
        </mxCell>
        <mxCell id="5WrRKkwtKEH5XO7ipjnT-111" value="" style="shape=folder;fontStyle=1;spacingTop=10;tabWidth=90;tabHeight=20;tabPosition=left;html=1;whiteSpace=wrap;fillColor=#FFF2CC;" parent="7jp_HMipScZkQKz6TcJ7-2" vertex="1">
          <mxGeometry width="1340" height="291.6279069767442" as="geometry" />
        </mxCell>
        <mxCell id="5WrRKkwtKEH5XO7ipjnT-112" value="usecase" style="text;strokeColor=none;align=center;fillColor=none;html=1;verticalAlign=middle;whiteSpace=wrap;rounded=0;" parent="7jp_HMipScZkQKz6TcJ7-2" vertex="1">
          <mxGeometry x="29" y="3.9979069767441615" width="40" height="10" as="geometry" />
        </mxCell>
        <mxCell id="5WrRKkwtKEH5XO7ipjnT-104" value="GerarInsightUseCase" style="swimlane;fontStyle=1;align=center;verticalAlign=top;childLayout=stackLayout;horizontal=1;startSize=26;horizontalStack=0;resizeParent=1;resizeParentMax=0;resizeLast=0;collapsible=1;marginBottom=0;whiteSpace=wrap;html=1;fillColor=#FFD966;container=0;" parent="7jp_HMipScZkQKz6TcJ7-35" vertex="1">
          <mxGeometry x="980" y="174.68000000000006" width="380" height="166.48648648648648" as="geometry" />
        </mxCell>
        <mxCell id="5WrRKkwtKEH5XO7ipjnT-105" value="&lt;div style=&quot;line-height: 200%;&quot;&gt;&lt;table&gt;&lt;tbody&gt;&lt;tr&gt;&lt;td&gt;&lt;code data-end=&quot;2862&quot; data-start=&quot;2841&quot;&gt;&lt;/code&gt;&lt;/td&gt;&lt;/tr&gt;&lt;/tbody&gt;&lt;/table&gt;&lt;table&gt;&lt;tbody&gt;&lt;tr&gt;&lt;td&gt;&lt;code data-end=&quot;2905&quot; data-start=&quot;2865&quot;&gt;- insightRepository: InsightRepository&lt;/code&gt;&lt;/td&gt;&lt;/tr&gt;&lt;/tbody&gt;&lt;/table&gt;&lt;/div&gt;" style="text;strokeColor=none;fillColor=none;align=left;verticalAlign=top;spacingLeft=4;spacingRight=4;overflow=hidden;rotatable=0;points=[[0,0.5],[1,0.5]];portConstraint=eastwest;whiteSpace=wrap;html=1;container=0;" parent="7jp_HMipScZkQKz6TcJ7-35" vertex="1">
          <mxGeometry x="980" y="205.59891891891903" width="380" height="40.43243243243243" as="geometry" />
        </mxCell>
        <mxCell id="5WrRKkwtKEH5XO7ipjnT-106" value="" style="line;strokeWidth=1;fillColor=none;align=left;verticalAlign=middle;spacingTop=-1;spacingLeft=3;spacingRight=3;rotatable=0;labelPosition=right;points=[];portConstraint=eastwest;strokeColor=#000000;container=0;" parent="7jp_HMipScZkQKz6TcJ7-35" vertex="1">
          <mxGeometry x="980" y="246.03135135135153" width="380" height="9.513513513513512" as="geometry" />
        </mxCell>
        <mxCell id="5WrRKkwtKEH5XO7ipjnT-107" value="&lt;div style=&quot;line-height: 200%;&quot;&gt;&lt;table&gt;&lt;tbody&gt;&lt;tr&gt;&lt;td&gt;&lt;code data-end=&quot;2905&quot; data-start=&quot;2865&quot;&gt;&lt;/code&gt;&lt;/td&gt;&lt;/tr&gt;&lt;/tbody&gt;&lt;/table&gt;&lt;table&gt;&lt;tbody&gt;&lt;tr&gt;&lt;td&gt;&lt;code data-end=&quot;2943&quot; data-start=&quot;2908&quot;&gt;+ gerar(idUsuario: Long): Insight&lt;/code&gt;&lt;br&gt;&lt;code data-end=&quot;2999&quot; data-start=&quot;2947&quot;&gt;+ listarPorUsuario(idUsuario: Long): List&amp;lt;Insight&amp;gt;&lt;/code&gt;&lt;/td&gt;&lt;/tr&gt;&lt;/tbody&gt;&lt;/table&gt;&lt;/div&gt;" style="text;strokeColor=none;fillColor=none;align=left;verticalAlign=top;spacingLeft=4;spacingRight=4;overflow=hidden;rotatable=0;points=[[0,0.5],[1,0.5]];portConstraint=eastwest;whiteSpace=wrap;html=1;container=0;" parent="7jp_HMipScZkQKz6TcJ7-35" vertex="1">
          <mxGeometry x="980" y="255.54486486486485" width="380" height="85.62162162162161" as="geometry" />
        </mxCell>
        <mxCell id="5WrRKkwtKEH5XO7ipjnT-96" value="GerenciarUsuarioUseCase" style="swimlane;fontStyle=1;align=center;verticalAlign=top;childLayout=stackLayout;horizontal=1;startSize=26;horizontalStack=0;resizeParent=1;resizeParentMax=0;resizeLast=0;collapsible=1;marginBottom=0;whiteSpace=wrap;html=1;fillColor=#FFD966;container=0;" parent="7jp_HMipScZkQKz6TcJ7-35" vertex="1">
          <mxGeometry x="100" y="174.68000000000006" width="350" height="190.27027027027026" as="geometry" />
        </mxCell>
        <mxCell id="5WrRKkwtKEH5XO7ipjnT-100" value="GerenciarTransacaoUseCase" style="swimlane;fontStyle=1;align=center;verticalAlign=top;childLayout=stackLayout;horizontal=1;startSize=26;horizontalStack=0;resizeParent=1;resizeParentMax=0;resizeLast=0;collapsible=1;marginBottom=0;whiteSpace=wrap;html=1;fillColor=#FFD966;container=0;" parent="7jp_HMipScZkQKz6TcJ7-35" vertex="1">
          <mxGeometry x="530" y="174.68000000000006" width="390" height="202.16216216216216" as="geometry" />
        </mxCell>
        <mxCell id="5WrRKkwtKEH5XO7ipjnT-97" value="&lt;div style=&quot;line-height: 200%;&quot;&gt;- usuarioRepository: UsuarioRepository&lt;/div&gt;" style="text;strokeColor=none;fillColor=none;align=left;verticalAlign=top;spacingLeft=4;spacingRight=4;overflow=hidden;rotatable=0;points=[[0,0.5],[1,0.5]];portConstraint=eastwest;whiteSpace=wrap;html=1;container=0;" parent="7jp_HMipScZkQKz6TcJ7-35" vertex="1">
          <mxGeometry x="100" y="205.59891891891903" width="350" height="40.43243243243243" as="geometry" />
        </mxCell>
        <mxCell id="5WrRKkwtKEH5XO7ipjnT-101" value="&lt;div style=&quot;line-height: 200%;&quot;&gt;- transacaoRepository: TransacaoRepository&lt;/div&gt;" style="text;strokeColor=none;fillColor=none;align=left;verticalAlign=top;spacingLeft=4;spacingRight=4;overflow=hidden;rotatable=0;points=[[0,0.5],[1,0.5]];portConstraint=eastwest;whiteSpace=wrap;html=1;container=0;" parent="7jp_HMipScZkQKz6TcJ7-35" vertex="1">
          <mxGeometry x="530" y="205.59891891891903" width="390" height="40.43243243243243" as="geometry" />
        </mxCell>
        <mxCell id="5WrRKkwtKEH5XO7ipjnT-102" value="" style="line;strokeWidth=1;fillColor=none;align=left;verticalAlign=middle;spacingTop=-1;spacingLeft=3;spacingRight=3;rotatable=0;labelPosition=right;points=[];portConstraint=eastwest;strokeColor=#000000;container=0;" parent="7jp_HMipScZkQKz6TcJ7-35" vertex="1">
          <mxGeometry x="530" y="246.03135135135153" width="390" height="9.513513513513512" as="geometry" />
        </mxCell>
        <mxCell id="5WrRKkwtKEH5XO7ipjnT-103" value="&lt;div style=&quot;line-height: 200%;&quot;&gt;&lt;code data-end=&quot;2630&quot; data-start=&quot;2578&quot;&gt;+ adicionar(transacaoDTO: TransacaoDTO): Transacao&lt;/code&gt;&lt;br&gt;&lt;code data-end=&quot;2693&quot; data-start=&quot;2634&quot;&gt;+ editar(id: Long, transacaoDTO: TransacaoDTO): Transacao&lt;/code&gt;&lt;br&gt;&lt;code data-end=&quot;2724&quot; data-start=&quot;2697&quot;&gt;+ excluir(id: Long): void&lt;/code&gt;&lt;br&gt;&lt;code data-end=&quot;2782&quot; data-start=&quot;2728&quot;&gt;+ listarPorUsuario(idUsuario: Long): List&amp;lt;Transacao&amp;gt;&lt;/code&gt;&lt;/div&gt;" style="text;strokeColor=none;fillColor=none;align=left;verticalAlign=top;spacingLeft=4;spacingRight=4;overflow=hidden;rotatable=0;points=[[0,0.5],[1,0.5]];portConstraint=eastwest;whiteSpace=wrap;html=1;container=0;" parent="7jp_HMipScZkQKz6TcJ7-35" vertex="1">
          <mxGeometry x="530" y="255.54486486486485" width="390" height="121.29729729729729" as="geometry" />
        </mxCell>
        <mxCell id="5WrRKkwtKEH5XO7ipjnT-99" value="&lt;div style=&quot;line-height: 200%;&quot;&gt;&lt;code data-end=&quot;2356&quot; data-start=&quot;2310&quot;&gt;+ registrar(usuarioDTO: UsuarioDTO): Usuario&lt;/code&gt;&lt;br&gt;&lt;code data-end=&quot;2413&quot; data-start=&quot;2360&quot;&gt;+ autenticar(email: String, senha: String): Usuario&lt;/code&gt;&lt;br&gt;&lt;code data-end=&quot;2444&quot; data-start=&quot;2417&quot;&gt;+ excluir(id: Long): void&lt;/code&gt;&lt;/div&gt;" style="text;strokeColor=none;fillColor=none;align=left;verticalAlign=top;spacingLeft=4;spacingRight=4;overflow=hidden;rotatable=0;points=[[0,0.5],[1,0.5]];portConstraint=eastwest;whiteSpace=wrap;html=1;container=0;" parent="7jp_HMipScZkQKz6TcJ7-35" vertex="1">
          <mxGeometry x="100" y="255.54486486486485" width="350" height="109.40540540540539" as="geometry" />
        </mxCell>
        <mxCell id="5WrRKkwtKEH5XO7ipjnT-98" value="" style="line;strokeWidth=1;fillColor=#000000;align=left;verticalAlign=middle;spacingTop=-1;spacingLeft=3;spacingRight=3;rotatable=0;labelPosition=right;points=[];portConstraint=eastwest;strokeColor=#000000;container=0;" parent="7jp_HMipScZkQKz6TcJ7-35" vertex="1">
          <mxGeometry x="100" y="246.03135135135153" width="350" height="9.513513513513512" as="geometry" />
        </mxCell>
        <mxCell id="7jp_HMipScZkQKz6TcJ7-34" value="application" style="text;html=1;align=center;verticalAlign=middle;resizable=0;points=[];autosize=1;strokeColor=none;fillColor=none;" vertex="1" parent="7jp_HMipScZkQKz6TcJ7-35">
          <mxGeometry x="8" y="66" width="80" height="30" as="geometry" />
        </mxCell>
        <mxCell id="7jp_HMipScZkQKz6TcJ7-92" value="Use" style="endArrow=open;endSize=12;dashed=1;html=1;rounded=0;" edge="1" parent="7jp_HMipScZkQKz6TcJ7-35" source="5WrRKkwtKEH5XO7ipjnT-96" target="7jp_HMipScZkQKz6TcJ7-5">
          <mxGeometry width="160" relative="1" as="geometry">
            <mxPoint x="300" y="380" as="sourcePoint" />
            <mxPoint x="460" y="380" as="targetPoint" />
          </mxGeometry>
        </mxCell>
        <mxCell id="7jp_HMipScZkQKz6TcJ7-93" value="Use" style="endArrow=open;endSize=12;dashed=1;html=1;rounded=0;" edge="1" parent="7jp_HMipScZkQKz6TcJ7-35" source="5WrRKkwtKEH5XO7ipjnT-100" target="7jp_HMipScZkQKz6TcJ7-9">
          <mxGeometry width="160" relative="1" as="geometry">
            <mxPoint x="610" y="440" as="sourcePoint" />
            <mxPoint x="460" y="380" as="targetPoint" />
          </mxGeometry>
        </mxCell>
        <mxCell id="7jp_HMipScZkQKz6TcJ7-94" value="Use" style="endArrow=open;endSize=12;dashed=1;html=1;rounded=0;" edge="1" parent="7jp_HMipScZkQKz6TcJ7-35" source="5WrRKkwtKEH5XO7ipjnT-104" target="7jp_HMipScZkQKz6TcJ7-13">
          <mxGeometry width="160" relative="1" as="geometry">
            <mxPoint x="950" y="360" as="sourcePoint" />
            <mxPoint x="1110" y="360" as="targetPoint" />
          </mxGeometry>
        </mxCell>
        <mxCell id="7jp_HMipScZkQKz6TcJ7-53" value="" style="group" vertex="1" connectable="0" parent="5WrRKkwtKEH5XO7ipjnT-20">
          <mxGeometry x="-205" y="1710" width="2030" height="460" as="geometry" />
        </mxCell>
        <mxCell id="7jp_HMipScZkQKz6TcJ7-51" value="" style="shape=folder;fontStyle=1;spacingTop=10;tabWidth=90;tabHeight=20;tabPosition=left;html=1;whiteSpace=wrap;fillColor=#FFFFCC;" vertex="1" parent="7jp_HMipScZkQKz6TcJ7-53">
          <mxGeometry width="2030" height="460" as="geometry" />
        </mxCell>
        <mxCell id="7jp_HMipScZkQKz6TcJ7-36" value="" style="shape=folder;fontStyle=1;spacingTop=10;tabWidth=90;tabHeight=20;tabPosition=left;html=1;whiteSpace=wrap;fillColor=#FFF2CC;" vertex="1" parent="7jp_HMipScZkQKz6TcJ7-53">
          <mxGeometry x="80" y="81.5" width="1890" height="300" as="geometry" />
        </mxCell>
        <mxCell id="7jp_HMipScZkQKz6TcJ7-37" value="UsuarioController" style="swimlane;fontStyle=1;align=center;verticalAlign=top;childLayout=stackLayout;horizontal=1;startSize=26;horizontalStack=0;resizeParent=1;resizeParentMax=0;resizeLast=0;collapsible=1;marginBottom=0;whiteSpace=wrap;html=1;fillColor=#FFD966;" vertex="1" parent="7jp_HMipScZkQKz6TcJ7-53">
          <mxGeometry x="140" y="146.5" width="490" height="170" as="geometry" />
        </mxCell>
        <mxCell id="7jp_HMipScZkQKz6TcJ7-38" value="&lt;div style=&quot;line-height: 200%;&quot;&gt;&lt;br&gt;&lt;/div&gt;" style="text;strokeColor=none;fillColor=none;align=left;verticalAlign=top;spacingLeft=4;spacingRight=4;overflow=hidden;rotatable=0;points=[[0,0.5],[1,0.5]];portConstraint=eastwest;whiteSpace=wrap;html=1;" vertex="1" parent="7jp_HMipScZkQKz6TcJ7-37">
          <mxGeometry y="26" width="490" height="4" as="geometry" />
        </mxCell>
        <mxCell id="7jp_HMipScZkQKz6TcJ7-39" value="" style="line;strokeWidth=1;fillColor=none;align=left;verticalAlign=middle;spacingTop=-1;spacingLeft=3;spacingRight=3;rotatable=0;labelPosition=right;points=[];portConstraint=eastwest;strokeColor=inherit;" vertex="1" parent="7jp_HMipScZkQKz6TcJ7-37">
          <mxGeometry y="30" width="490" height="8" as="geometry" />
        </mxCell>
        <mxCell id="7jp_HMipScZkQKz6TcJ7-40" value="&lt;div style=&quot;line-height: 200%;&quot;&gt;&lt;code data-end=&quot;3610&quot; data-start=&quot;3542&quot;&gt;+ criarUsuario(usuarioDTO: UsuarioDTO): ResponseEntity&amp;lt;UsuarioDTO&amp;gt;&lt;/code&gt;&lt;br&gt;&lt;code data-end=&quot;3686&quot; data-start=&quot;3614&quot;&gt;+ autenticar(email: String, senha: String): ResponseEntity&amp;lt;UsuarioDTO&amp;gt;&lt;/code&gt;&lt;br&gt;&lt;code data-end=&quot;3740&quot; data-start=&quot;3690&quot;&gt;+ excluirUsuario(id: Long): ResponseEntity&amp;lt;Void&amp;gt;&lt;/code&gt;&lt;/div&gt;" style="text;strokeColor=none;fillColor=none;align=left;verticalAlign=top;spacingLeft=4;spacingRight=4;overflow=hidden;rotatable=0;points=[[0,0.5],[1,0.5]];portConstraint=eastwest;whiteSpace=wrap;html=1;" vertex="1" parent="7jp_HMipScZkQKz6TcJ7-37">
          <mxGeometry y="38" width="490" height="132" as="geometry" />
        </mxCell>
        <mxCell id="7jp_HMipScZkQKz6TcJ7-41" value="web" style="text;html=1;align=center;verticalAlign=middle;resizable=0;points=[];autosize=1;strokeColor=none;fillColor=none;" vertex="1" parent="7jp_HMipScZkQKz6TcJ7-53">
          <mxGeometry x="100" y="78.5" width="50" height="30" as="geometry" />
        </mxCell>
        <mxCell id="7jp_HMipScZkQKz6TcJ7-42" value="TransacaoController" style="swimlane;fontStyle=1;align=center;verticalAlign=top;childLayout=stackLayout;horizontal=1;startSize=26;horizontalStack=0;resizeParent=1;resizeParentMax=0;resizeLast=0;collapsible=1;marginBottom=0;whiteSpace=wrap;html=1;fillColor=#FFD966;" vertex="1" parent="7jp_HMipScZkQKz6TcJ7-53">
          <mxGeometry x="720" y="131.5" width="590" height="220" as="geometry" />
        </mxCell>
        <mxCell id="7jp_HMipScZkQKz6TcJ7-43" value="&lt;div style=&quot;line-height: 200%;&quot;&gt;&lt;br&gt;&lt;/div&gt;" style="text;strokeColor=none;fillColor=none;align=left;verticalAlign=top;spacingLeft=4;spacingRight=4;overflow=hidden;rotatable=0;points=[[0,0.5],[1,0.5]];portConstraint=eastwest;whiteSpace=wrap;html=1;" vertex="1" parent="7jp_HMipScZkQKz6TcJ7-42">
          <mxGeometry y="26" width="590" height="4" as="geometry" />
        </mxCell>
        <mxCell id="7jp_HMipScZkQKz6TcJ7-44" value="" style="line;strokeWidth=1;fillColor=none;align=left;verticalAlign=middle;spacingTop=-1;spacingLeft=3;spacingRight=3;rotatable=0;labelPosition=right;points=[];portConstraint=eastwest;strokeColor=inherit;" vertex="1" parent="7jp_HMipScZkQKz6TcJ7-42">
          <mxGeometry y="30" width="590" height="8" as="geometry" />
        </mxCell>
        <mxCell id="7jp_HMipScZkQKz6TcJ7-45" value="&lt;div style=&quot;line-height: 200%;&quot;&gt;&lt;code data-end=&quot;3917&quot; data-start=&quot;3837&quot;&gt;+ adicionarTransacao(transacaoDTO: TransacaoDTO): ResponseEntity&amp;lt;TransacaoDTO&amp;gt;&lt;/code&gt;&lt;br&gt;&lt;code data-end=&quot;4008&quot; data-start=&quot;3921&quot;&gt;+ editarTransacao(id: Long, transacaoDTO: TransacaoDTO): ResponseEntity&amp;lt;TransacaoDTO&amp;gt;&lt;/code&gt;&lt;br&gt;&lt;code data-end=&quot;4064&quot; data-start=&quot;4012&quot;&gt;+ excluirTransacao(id: Long): ResponseEntity&amp;lt;Void&amp;gt;&lt;/code&gt;&lt;br&gt;&lt;code data-end=&quot;4141&quot; data-start=&quot;4068&quot;&gt;+ listarTransacoes(idUsuario: Long): ResponseEntity&amp;lt;List&amp;lt;TransacaoDTO&amp;gt;&amp;gt;&lt;/code&gt;&lt;/div&gt;" style="text;strokeColor=none;fillColor=none;align=left;verticalAlign=top;spacingLeft=4;spacingRight=4;overflow=hidden;rotatable=0;points=[[0,0.5],[1,0.5]];portConstraint=eastwest;whiteSpace=wrap;html=1;" vertex="1" parent="7jp_HMipScZkQKz6TcJ7-42">
          <mxGeometry y="38" width="590" height="182" as="geometry" />
        </mxCell>
        <mxCell id="7jp_HMipScZkQKz6TcJ7-46" value="InsightController" style="swimlane;fontStyle=1;align=center;verticalAlign=top;childLayout=stackLayout;horizontal=1;startSize=26;horizontalStack=0;resizeParent=1;resizeParentMax=0;resizeLast=0;collapsible=1;marginBottom=0;whiteSpace=wrap;html=1;fillColor=#FFD966;" vertex="1" parent="7jp_HMipScZkQKz6TcJ7-53">
          <mxGeometry x="1440" y="141.5" width="470" height="150" as="geometry" />
        </mxCell>
        <mxCell id="7jp_HMipScZkQKz6TcJ7-47" value="&lt;div style=&quot;line-height: 200%;&quot;&gt;&lt;br&gt;&lt;/div&gt;" style="text;strokeColor=none;fillColor=none;align=left;verticalAlign=top;spacingLeft=4;spacingRight=4;overflow=hidden;rotatable=0;points=[[0,0.5],[1,0.5]];portConstraint=eastwest;whiteSpace=wrap;html=1;" vertex="1" parent="7jp_HMipScZkQKz6TcJ7-46">
          <mxGeometry y="26" width="470" height="4" as="geometry" />
        </mxCell>
        <mxCell id="7jp_HMipScZkQKz6TcJ7-48" value="" style="line;strokeWidth=1;fillColor=none;align=left;verticalAlign=middle;spacingTop=-1;spacingLeft=3;spacingRight=3;rotatable=0;labelPosition=right;points=[];portConstraint=eastwest;strokeColor=inherit;" vertex="1" parent="7jp_HMipScZkQKz6TcJ7-46">
          <mxGeometry y="30" width="470" height="8" as="geometry" />
        </mxCell>
        <mxCell id="7jp_HMipScZkQKz6TcJ7-49" value="&lt;div style=&quot;line-height: 200%;&quot;&gt;&lt;code data-end=&quot;4299&quot; data-start=&quot;4238&quot;&gt;+ gerarInsight(idUsuario: Long): ResponseEntity&amp;lt;InsightDTO&amp;gt;&lt;/code&gt;&lt;br&gt;&lt;code data-end=&quot;4372&quot; data-start=&quot;4303&quot;&gt;+ listarInsights(idUsuario: Long): ResponseEntity&amp;lt;List&amp;lt;InsightDTO&amp;gt;&amp;gt;&lt;/code&gt;&lt;/div&gt;" style="text;strokeColor=none;fillColor=none;align=left;verticalAlign=top;spacingLeft=4;spacingRight=4;overflow=hidden;rotatable=0;points=[[0,0.5],[1,0.5]];portConstraint=eastwest;whiteSpace=wrap;html=1;" vertex="1" parent="7jp_HMipScZkQKz6TcJ7-46">
          <mxGeometry y="38" width="470" height="112" as="geometry" />
        </mxCell>
        <mxCell id="7jp_HMipScZkQKz6TcJ7-52" value="infra" style="text;html=1;align=center;verticalAlign=middle;resizable=0;points=[];autosize=1;strokeColor=none;fillColor=none;" vertex="1" parent="7jp_HMipScZkQKz6TcJ7-53">
          <mxGeometry x="20" y="-4" width="50" height="30" as="geometry" />
        </mxCell>
        <mxCell id="7jp_HMipScZkQKz6TcJ7-55" value="integrations" style="shape=folder;fontStyle=1;tabWidth=110;tabHeight=30;tabPosition=left;html=1;boundedLbl=1;labelInHeader=1;container=1;collapsible=0;whiteSpace=wrap;fillColor=#FFF2CC;" vertex="1" parent="5WrRKkwtKEH5XO7ipjnT-20">
          <mxGeometry x="1070" y="770" width="330" height="150" as="geometry" />
        </mxCell>
        <mxCell id="7jp_HMipScZkQKz6TcJ7-56" value="" style="html=1;strokeColor=none;resizeWidth=1;resizeHeight=1;fillColor=none;part=1;connectable=0;allowArrows=0;deletable=0;whiteSpace=wrap;" vertex="1" parent="7jp_HMipScZkQKz6TcJ7-55">
          <mxGeometry width="260.5263157894737" height="55.851063829787236" relative="1" as="geometry">
            <mxPoint y="30" as="offset" />
          </mxGeometry>
        </mxCell>
        <mxCell id="7jp_HMipScZkQKz6TcJ7-57" value="OpenAiServico" style="swimlane;fontStyle=2;align=center;verticalAlign=top;childLayout=stackLayout;horizontal=1;startSize=26;horizontalStack=0;resizeParent=1;resizeLast=0;collapsible=1;marginBottom=0;rounded=0;shadow=0;strokeWidth=1;fillColor=#FFD966;" vertex="1" parent="7jp_HMipScZkQKz6TcJ7-55">
          <mxGeometry x="26.05" y="41.13" width="277.89" height="98.87" as="geometry">
            <mxRectangle x="230" y="140" width="160" height="26" as="alternateBounds" />
          </mxGeometry>
        </mxCell>
        <mxCell id="7jp_HMipScZkQKz6TcJ7-58" value="" style="line;html=1;strokeWidth=1;align=left;verticalAlign=middle;spacingTop=-1;spacingLeft=3;spacingRight=3;rotatable=0;labelPosition=right;points=[];portConstraint=eastwest;" vertex="1" parent="7jp_HMipScZkQKz6TcJ7-57">
          <mxGeometry y="26" width="277.89" height="6.382978723404255" as="geometry" />
        </mxCell>
        <mxCell id="7jp_HMipScZkQKz6TcJ7-59" value="&lt;div style=&quot;line-height: 170%;&quot;&gt;- apiKey : String&lt;br&gt;+ gerarInsights(mensagem: String) : String&lt;/div&gt;" style="text;align=left;verticalAlign=top;spacingLeft=4;spacingRight=4;overflow=hidden;rotatable=0;points=[[0,0.5],[1,0.5]];portConstraint=eastwest;html=1;" vertex="1" parent="7jp_HMipScZkQKz6TcJ7-57">
          <mxGeometry y="32.38297872340426" width="277.89" height="47.62" as="geometry" />
        </mxCell>
        <mxCell id="7jp_HMipScZkQKz6TcJ7-60" value="analysis" style="shape=folder;fontStyle=1;tabWidth=110;tabHeight=30;tabPosition=left;html=1;boundedLbl=1;labelInHeader=1;container=1;collapsible=0;whiteSpace=wrap;fillColor=#FFF2CC;" vertex="1" parent="5WrRKkwtKEH5XO7ipjnT-20">
          <mxGeometry x="540" y="730" width="390" height="230" as="geometry" />
        </mxCell>
        <mxCell id="7jp_HMipScZkQKz6TcJ7-61" value="" style="html=1;strokeColor=none;resizeWidth=1;resizeHeight=1;fillColor=none;part=1;connectable=0;allowArrows=0;deletable=0;whiteSpace=wrap;" vertex="1" parent="7jp_HMipScZkQKz6TcJ7-60">
          <mxGeometry width="307.8947368421054" height="85.63829787234043" relative="1" as="geometry">
            <mxPoint y="30" as="offset" />
          </mxGeometry>
        </mxCell>
        <mxCell id="7jp_HMipScZkQKz6TcJ7-62" value="AnaliseFinananceiraService" style="swimlane;fontStyle=2;align=center;verticalAlign=top;childLayout=stackLayout;horizontal=1;startSize=26;horizontalStack=0;resizeParent=1;resizeLast=0;collapsible=1;marginBottom=0;rounded=0;shadow=0;strokeWidth=1;fillColor=#FFD966;" vertex="1" parent="7jp_HMipScZkQKz6TcJ7-60">
          <mxGeometry x="30.787518796992494" y="44.00306990881459" width="328.4171428571429" height="168.82978723404256" as="geometry">
            <mxRectangle x="230" y="140" width="160" height="26" as="alternateBounds" />
          </mxGeometry>
        </mxCell>
        <mxCell id="7jp_HMipScZkQKz6TcJ7-63" value="" style="line;html=1;strokeWidth=1;align=left;verticalAlign=middle;spacingTop=-1;spacingLeft=3;spacingRight=3;rotatable=0;labelPosition=right;points=[];portConstraint=eastwest;" vertex="1" parent="7jp_HMipScZkQKz6TcJ7-62">
          <mxGeometry y="26" width="328.4171428571429" height="9.787234042553191" as="geometry" />
        </mxCell>
        <mxCell id="7jp_HMipScZkQKz6TcJ7-64" value="&lt;div style=&quot;line-height: 170%;&quot;&gt;- repositorio : TransacaoRepositorio&lt;br&gt;- openAiServico : OpenAiServico&lt;br&gt;+ calcularGastosPorCategoria() : Map&amp;lt;String, BigDecimal&amp;gt;&lt;br&gt;+ preverGastosFuturos() : BigDecimal&lt;br&gt;+ gerarInsights(transacoes: List&amp;lt;Transacao&amp;gt;) : String&lt;/div&gt;" style="text;align=left;verticalAlign=top;spacingLeft=4;spacingRight=4;overflow=hidden;rotatable=0;points=[[0,0.5],[1,0.5]];portConstraint=eastwest;html=1;" vertex="1" parent="7jp_HMipScZkQKz6TcJ7-62">
          <mxGeometry y="35.787234042553195" width="328.4171428571429" height="114.21" as="geometry" />
        </mxCell>
        <mxCell id="7jp_HMipScZkQKz6TcJ7-73" value="Depende" style="endArrow=open;endSize=12;dashed=1;html=1;rounded=0;" edge="1" parent="5WrRKkwtKEH5XO7ipjnT-20" source="5WrRKkwtKEH5XO7ipjnT-104" target="7jp_HMipScZkQKz6TcJ7-57">
          <mxGeometry width="160" relative="1" as="geometry">
            <mxPoint x="952" y="1065" as="sourcePoint" />
            <mxPoint x="1500" y="840" as="targetPoint" />
          </mxGeometry>
        </mxCell>
        <mxCell id="7jp_HMipScZkQKz6TcJ7-74" value="Depende" style="endArrow=open;endSize=12;dashed=1;html=1;rounded=0;" edge="1" parent="5WrRKkwtKEH5XO7ipjnT-20" source="5WrRKkwtKEH5XO7ipjnT-100" target="7jp_HMipScZkQKz6TcJ7-62">
          <mxGeometry width="160" relative="1" as="geometry">
            <mxPoint x="627" y="1084.5" as="sourcePoint" />
            <mxPoint x="1030" y="870" as="targetPoint" />
          </mxGeometry>
        </mxCell>
        <mxCell id="7jp_HMipScZkQKz6TcJ7-77" value="" style="endArrow=open;endFill=1;endSize=12;html=1;rounded=0;" edge="1" parent="5WrRKkwtKEH5XO7ipjnT-20" source="7jp_HMipScZkQKz6TcJ7-37" target="5WrRKkwtKEH5XO7ipjnT-96">
          <mxGeometry width="160" relative="1" as="geometry">
            <mxPoint x="10" y="1430" as="sourcePoint" />
            <mxPoint x="170" y="1430" as="targetPoint" />
            <Array as="points">
              <mxPoint x="-260" y="1930" />
              <mxPoint x="-260" y="1150" />
            </Array>
          </mxGeometry>
        </mxCell>
        <mxCell id="7jp_HMipScZkQKz6TcJ7-79" value="" style="endArrow=open;endFill=1;endSize=12;html=1;rounded=0;" edge="1" parent="5WrRKkwtKEH5XO7ipjnT-20" source="7jp_HMipScZkQKz6TcJ7-42" target="5WrRKkwtKEH5XO7ipjnT-100">
          <mxGeometry width="160" relative="1" as="geometry">
            <mxPoint x="270" y="1550" as="sourcePoint" />
            <mxPoint x="430" y="1550" as="targetPoint" />
            <Array as="points">
              <mxPoint x="560" y="1710" />
              <mxPoint x="270" y="1710" />
              <mxPoint x="270" y="1200" />
            </Array>
          </mxGeometry>
        </mxCell>
        <mxCell id="7jp_HMipScZkQKz6TcJ7-81" value="" style="endArrow=open;endFill=1;endSize=12;html=1;rounded=0;" edge="1" parent="5WrRKkwtKEH5XO7ipjnT-20" source="7jp_HMipScZkQKz6TcJ7-46" target="5WrRKkwtKEH5XO7ipjnT-104">
          <mxGeometry width="160" relative="1" as="geometry">
            <mxPoint x="1180" y="1460" as="sourcePoint" />
            <mxPoint x="1340" y="1460" as="targetPoint" />
            <Array as="points">
              <mxPoint x="1310" y="1138" />
            </Array>
          </mxGeometry>
        </mxCell>
        <mxCell id="7jp_HMipScZkQKz6TcJ7-82" value="OpenAi API" style="swimlane;fontStyle=2;align=center;verticalAlign=top;childLayout=stackLayout;horizontal=1;startSize=26;horizontalStack=0;resizeParent=1;resizeLast=0;collapsible=1;marginBottom=0;rounded=0;shadow=0;strokeWidth=1;fillColor=#FFD966;" vertex="1" parent="5WrRKkwtKEH5XO7ipjnT-20">
          <mxGeometry x="1449" y="840" width="176.84" height="40" as="geometry">
            <mxRectangle x="230" y="140" width="160" height="26" as="alternateBounds" />
          </mxGeometry>
        </mxCell>
        <mxCell id="7jp_HMipScZkQKz6TcJ7-83" value="" style="line;html=1;strokeWidth=1;align=left;verticalAlign=middle;spacingTop=-1;spacingLeft=3;spacingRight=3;rotatable=0;labelPosition=right;points=[];portConstraint=eastwest;" vertex="1" parent="7jp_HMipScZkQKz6TcJ7-82">
          <mxGeometry y="26" width="176.84" height="9.787234042553191" as="geometry" />
        </mxCell>
        <mxCell id="7jp_HMipScZkQKz6TcJ7-84" value="" style="endArrow=open;endFill=1;endSize=12;html=1;rounded=0;" edge="1" parent="5WrRKkwtKEH5XO7ipjnT-20" source="7jp_HMipScZkQKz6TcJ7-57" target="7jp_HMipScZkQKz6TcJ7-82">
          <mxGeometry width="160" relative="1" as="geometry">
            <mxPoint x="1360" y="900" as="sourcePoint" />
            <mxPoint x="1520" y="900" as="targetPoint" />
          </mxGeometry>
        </mxCell>
        <mxCell id="7jp_HMipScZkQKz6TcJ7-88" value="Use" style="endArrow=open;endSize=12;dashed=1;html=1;rounded=0;" edge="1" parent="5WrRKkwtKEH5XO7ipjnT-20" source="7jp_HMipScZkQKz6TcJ7-37" target="7jp_HMipScZkQKz6TcJ7-5">
          <mxGeometry width="160" relative="1" as="geometry">
            <mxPoint x="270" y="1510" as="sourcePoint" />
            <mxPoint x="430" y="1510" as="targetPoint" />
          </mxGeometry>
        </mxCell>
        <mxCell id="7jp_HMipScZkQKz6TcJ7-89" value="Use" style="endArrow=open;endSize=12;dashed=1;html=1;rounded=0;" edge="1" parent="5WrRKkwtKEH5XO7ipjnT-20" source="7jp_HMipScZkQKz6TcJ7-42" target="7jp_HMipScZkQKz6TcJ7-9">
          <mxGeometry width="160" relative="1" as="geometry">
            <mxPoint x="420" y="1500" as="sourcePoint" />
            <mxPoint x="580" y="1500" as="targetPoint" />
          </mxGeometry>
        </mxCell>
        <mxCell id="7jp_HMipScZkQKz6TcJ7-91" value="Use" style="endArrow=open;endSize=12;dashed=1;html=1;rounded=0;" edge="1" parent="5WrRKkwtKEH5XO7ipjnT-20" source="7jp_HMipScZkQKz6TcJ7-46" target="7jp_HMipScZkQKz6TcJ7-13">
          <mxGeometry width="160" relative="1" as="geometry">
            <mxPoint x="1000" y="1510" as="sourcePoint" />
            <mxPoint x="1160" y="1510" as="targetPoint" />
          </mxGeometry>
        </mxCell>
        <mxCell id="7jp_HMipScZkQKz6TcJ7-76" value="" style="group" vertex="1" connectable="0" parent="WIyWlLk6GJQsqaUBKTNV-1">
          <mxGeometry x="-3900" y="-390" width="1100" height="870" as="geometry" />
        </mxCell>
        <mxCell id="5WrRKkwtKEH5XO7ipjnT-71" value="" style="shape=folder;fontStyle=1;spacingTop=10;tabWidth=90;tabHeight=20;tabPosition=left;html=1;whiteSpace=wrap;fillColor=#FFFFCC;" parent="7jp_HMipScZkQKz6TcJ7-76" vertex="1">
          <mxGeometry width="1100" height="870" as="geometry" />
        </mxCell>
        <mxCell id="5WrRKkwtKEH5XO7ipjnT-4" value="" style="shape=folder;fontStyle=1;spacingTop=10;tabWidth=90;tabHeight=20;tabPosition=left;html=1;whiteSpace=wrap;fillColor=#FFF2CC;" parent="7jp_HMipScZkQKz6TcJ7-76" vertex="1">
          <mxGeometry x="30" y="50" width="1030" height="470" as="geometry" />
        </mxCell>
        <mxCell id="5WrRKkwtKEH5XO7ipjnT-13" value="model" style="text;strokeColor=none;align=center;fillColor=none;html=1;verticalAlign=middle;whiteSpace=wrap;rounded=0;" parent="7jp_HMipScZkQKz6TcJ7-76" vertex="1">
          <mxGeometry x="40" y="55" width="40" height="10" as="geometry" />
        </mxCell>
        <mxCell id="5WrRKkwtKEH5XO7ipjnT-16" value="Insight" style="swimlane;fontStyle=1;align=center;verticalAlign=top;childLayout=stackLayout;horizontal=1;startSize=26;horizontalStack=0;resizeParent=1;resizeParentMax=0;resizeLast=0;collapsible=1;marginBottom=0;whiteSpace=wrap;html=1;fillColor=#FFD966;" parent="7jp_HMipScZkQKz6TcJ7-76" vertex="1">
          <mxGeometry x="720" y="165" width="320" height="260" as="geometry" />
        </mxCell>
        <mxCell id="5WrRKkwtKEH5XO7ipjnT-17" value="&lt;div style=&quot;line-height: 200%;&quot;&gt;&lt;table&gt;&lt;tbody&gt;&lt;tr&gt;&lt;td&gt;&lt;code data-end=&quot;1257&quot; data-start=&quot;1248&quot;&gt;&lt;/code&gt;&lt;/td&gt;&lt;/tr&gt;&lt;/tbody&gt;&lt;/table&gt;&lt;table&gt;&lt;tbody&gt;&lt;tr&gt;&lt;td&gt;&lt;code data-end=&quot;1272&quot; data-start=&quot;1260&quot;&gt;- id: Long&lt;/code&gt;&lt;br&gt;&lt;code data-end=&quot;1297&quot; data-start=&quot;1276&quot;&gt;- descricao: String&lt;/code&gt;&lt;br&gt;&lt;code data-end=&quot;1331&quot; data-start=&quot;1301&quot;&gt;- dataCriacao: LocalDateTime&lt;/code&gt;&lt;/td&gt;&lt;/tr&gt;&lt;/tbody&gt;&lt;/table&gt;&lt;/div&gt;" style="text;strokeColor=none;fillColor=none;align=left;verticalAlign=top;spacingLeft=4;spacingRight=4;overflow=hidden;rotatable=0;points=[[0,0.5],[1,0.5]];portConstraint=eastwest;whiteSpace=wrap;html=1;" parent="5WrRKkwtKEH5XO7ipjnT-16" vertex="1">
          <mxGeometry y="26" width="320" height="94" as="geometry" />
        </mxCell>
        <mxCell id="5WrRKkwtKEH5XO7ipjnT-18" value="" style="line;strokeWidth=1;fillColor=none;align=left;verticalAlign=middle;spacingTop=-1;spacingLeft=3;spacingRight=3;rotatable=0;labelPosition=right;points=[];portConstraint=eastwest;strokeColor=inherit;" parent="5WrRKkwtKEH5XO7ipjnT-16" vertex="1">
          <mxGeometry y="120" width="320" height="8" as="geometry" />
        </mxCell>
        <mxCell id="5WrRKkwtKEH5XO7ipjnT-19" value="&lt;div style=&quot;line-height: 200%;&quot;&gt;&lt;code data-end=&quot;1351&quot; data-start=&quot;1334&quot;&gt;+ getId(): Long&lt;/code&gt;&lt;br&gt;&lt;code data-end=&quot;1381&quot; data-start=&quot;1355&quot;&gt;+ getDescricao(): String&lt;/code&gt;&lt;br&gt;&lt;code data-end=&quot;1420&quot; data-start=&quot;1385&quot;&gt;+ getDataCriacao(): LocalDateTime&lt;/code&gt;&lt;br&gt;&lt;code data-end=&quot;1465&quot; data-start=&quot;1424&quot;&gt;+ setDescricao(descricao: String): void&lt;/code&gt;&lt;br&gt;&lt;code data-end=&quot;1514&quot; data-start=&quot;1469&quot;&gt;+ setDataCriacao(data: LocalDateTime): void&lt;/code&gt;&lt;/div&gt;" style="text;strokeColor=none;fillColor=none;align=left;verticalAlign=top;spacingLeft=4;spacingRight=4;overflow=hidden;rotatable=0;points=[[0,0.5],[1,0.5]];portConstraint=eastwest;whiteSpace=wrap;html=1;" parent="5WrRKkwtKEH5XO7ipjnT-16" vertex="1">
          <mxGeometry y="128" width="320" height="132" as="geometry" />
        </mxCell>
        <mxCell id="5WrRKkwtKEH5XO7ipjnT-72" value="domain" style="text;strokeColor=none;align=center;fillColor=none;html=1;verticalAlign=middle;whiteSpace=wrap;rounded=0;" parent="7jp_HMipScZkQKz6TcJ7-76" vertex="1">
          <mxGeometry x="18" y="6" width="40" height="10" as="geometry" />
        </mxCell>
        <mxCell id="7jp_HMipScZkQKz6TcJ7-66" value="" style="group" vertex="1" connectable="0" parent="7jp_HMipScZkQKz6TcJ7-76">
          <mxGeometry x="50" y="580" width="1030" height="200" as="geometry" />
        </mxCell>
        <mxCell id="5WrRKkwtKEH5XO7ipjnT-23" value="" style="shape=folder;fontStyle=1;spacingTop=10;tabWidth=90;tabHeight=20;tabPosition=left;html=1;whiteSpace=wrap;fillColor=#FFF2CC;" parent="7jp_HMipScZkQKz6TcJ7-66" vertex="1">
          <mxGeometry width="1030" height="200" as="geometry" />
        </mxCell>
        <mxCell id="5WrRKkwtKEH5XO7ipjnT-32" value="repository" style="text;strokeColor=none;align=center;fillColor=none;html=1;verticalAlign=middle;whiteSpace=wrap;rounded=0;" parent="7jp_HMipScZkQKz6TcJ7-66" vertex="1">
          <mxGeometry x="22" y="5" width="40" height="10" as="geometry" />
        </mxCell>
        <mxCell id="5WrRKkwtKEH5XO7ipjnT-48" value="TransacaoRepository" style="swimlane;fontStyle=1;align=center;verticalAlign=top;childLayout=stackLayout;horizontal=1;startSize=26;horizontalStack=0;resizeParent=1;resizeParentMax=0;resizeLast=0;collapsible=1;marginBottom=0;whiteSpace=wrap;html=1;fillColor=#FFD966;" parent="7jp_HMipScZkQKz6TcJ7-66" vertex="1">
          <mxGeometry x="300" y="50" width="340" height="120" as="geometry" />
        </mxCell>
        <mxCell id="5WrRKkwtKEH5XO7ipjnT-49" value="&lt;div style=&quot;line-height: 200%;&quot;&gt;&lt;br&gt;&lt;/div&gt;" style="text;strokeColor=none;fillColor=none;align=left;verticalAlign=top;spacingLeft=4;spacingRight=4;overflow=hidden;rotatable=0;points=[[0,0.5],[1,0.5]];portConstraint=eastwest;whiteSpace=wrap;html=1;" parent="5WrRKkwtKEH5XO7ipjnT-48" vertex="1">
          <mxGeometry y="26" width="340" height="4" as="geometry" />
        </mxCell>
        <mxCell id="5WrRKkwtKEH5XO7ipjnT-50" value="" style="line;strokeWidth=1;fillColor=none;align=left;verticalAlign=middle;spacingTop=-1;spacingLeft=3;spacingRight=3;rotatable=0;labelPosition=right;points=[];portConstraint=eastwest;strokeColor=inherit;" parent="5WrRKkwtKEH5XO7ipjnT-48" vertex="1">
          <mxGeometry y="30" width="340" height="8" as="geometry" />
        </mxCell>
        <mxCell id="5WrRKkwtKEH5XO7ipjnT-51" value="&lt;div style=&quot;line-height: 200%;&quot;&gt;&lt;code data-end=&quot;1852&quot; data-start=&quot;1811&quot;&gt;+ save(transacao: Transacao): Transacao&lt;/code&gt;&lt;br&gt;&lt;code data-end=&quot;1907&quot; data-start=&quot;1856&quot;&gt;+ findByUsuario(idUsuario: Long): List&amp;lt;Transacao&amp;gt;&lt;/code&gt;&lt;br&gt;&lt;code data-end=&quot;1937&quot; data-start=&quot;1911&quot;&gt;+ delete(id: Long): void&lt;/code&gt;&lt;/div&gt;" style="text;strokeColor=none;fillColor=none;align=left;verticalAlign=top;spacingLeft=4;spacingRight=4;overflow=hidden;rotatable=0;points=[[0,0.5],[1,0.5]];portConstraint=eastwest;whiteSpace=wrap;html=1;" parent="5WrRKkwtKEH5XO7ipjnT-48" vertex="1">
          <mxGeometry y="38" width="340" height="82" as="geometry" />
        </mxCell>
        <mxCell id="5WrRKkwtKEH5XO7ipjnT-52" value="InsightRepository" style="swimlane;fontStyle=1;align=center;verticalAlign=top;childLayout=stackLayout;horizontal=1;startSize=26;horizontalStack=0;resizeParent=1;resizeParentMax=0;resizeLast=0;collapsible=1;marginBottom=0;whiteSpace=wrap;html=1;fillColor=#FFD966;" parent="7jp_HMipScZkQKz6TcJ7-66" vertex="1">
          <mxGeometry x="660" y="50" width="340" height="120" as="geometry" />
        </mxCell>
        <mxCell id="5WrRKkwtKEH5XO7ipjnT-53" value="&lt;div style=&quot;line-height: 200%;&quot;&gt;&lt;br&gt;&lt;/div&gt;" style="text;strokeColor=none;fillColor=none;align=left;verticalAlign=top;spacingLeft=4;spacingRight=4;overflow=hidden;rotatable=0;points=[[0,0.5],[1,0.5]];portConstraint=eastwest;whiteSpace=wrap;html=1;" parent="5WrRKkwtKEH5XO7ipjnT-52" vertex="1">
          <mxGeometry y="26" width="340" height="4" as="geometry" />
        </mxCell>
        <mxCell id="5WrRKkwtKEH5XO7ipjnT-54" value="" style="line;strokeWidth=1;fillColor=none;align=left;verticalAlign=middle;spacingTop=-1;spacingLeft=3;spacingRight=3;rotatable=0;labelPosition=right;points=[];portConstraint=eastwest;strokeColor=inherit;" parent="5WrRKkwtKEH5XO7ipjnT-52" vertex="1">
          <mxGeometry y="30" width="340" height="8" as="geometry" />
        </mxCell>
        <mxCell id="5WrRKkwtKEH5XO7ipjnT-55" value="&lt;div style=&quot;line-height: 200%;&quot;&gt;&lt;code data-end=&quot;2082&quot; data-start=&quot;2047&quot;&gt;+ save(insight: Insight): Insight&lt;/code&gt;&lt;br&gt;&lt;code data-end=&quot;2135&quot; data-start=&quot;2086&quot;&gt;+ findByUsuario(idUsuario: Long): List&amp;lt;Insight&amp;gt;&lt;/code&gt;&lt;br&gt;&lt;code data-end=&quot;2165&quot; data-start=&quot;2139&quot;&gt;+ delete(id: Long): void&lt;/code&gt;&lt;/div&gt;" style="text;strokeColor=none;fillColor=none;align=left;verticalAlign=top;spacingLeft=4;spacingRight=4;overflow=hidden;rotatable=0;points=[[0,0.5],[1,0.5]];portConstraint=eastwest;whiteSpace=wrap;html=1;" parent="5WrRKkwtKEH5XO7ipjnT-52" vertex="1">
          <mxGeometry y="38" width="340" height="82" as="geometry" />
        </mxCell>
        <mxCell id="5WrRKkwtKEH5XO7ipjnT-44" value="UsuarioRepository" style="swimlane;fontStyle=1;align=center;verticalAlign=top;childLayout=stackLayout;horizontal=1;startSize=26;horizontalStack=0;resizeParent=1;resizeParentMax=0;resizeLast=0;collapsible=1;marginBottom=0;whiteSpace=wrap;html=1;fillColor=#FFD966;" parent="7jp_HMipScZkQKz6TcJ7-66" vertex="1">
          <mxGeometry x="50" y="50" width="230" height="120" as="geometry" />
        </mxCell>
        <mxCell id="5WrRKkwtKEH5XO7ipjnT-45" value="&lt;div style=&quot;line-height: 200%;&quot;&gt;&lt;br&gt;&lt;/div&gt;" style="text;strokeColor=none;fillColor=none;align=left;verticalAlign=top;spacingLeft=4;spacingRight=4;overflow=hidden;rotatable=0;points=[[0,0.5],[1,0.5]];portConstraint=eastwest;whiteSpace=wrap;html=1;" parent="5WrRKkwtKEH5XO7ipjnT-44" vertex="1">
          <mxGeometry y="26" width="230" height="4" as="geometry" />
        </mxCell>
        <mxCell id="5WrRKkwtKEH5XO7ipjnT-46" value="" style="line;strokeWidth=1;fillColor=none;align=left;verticalAlign=middle;spacingTop=-1;spacingLeft=3;spacingRight=3;rotatable=0;labelPosition=right;points=[];portConstraint=eastwest;strokeColor=inherit;" parent="5WrRKkwtKEH5XO7ipjnT-44" vertex="1">
          <mxGeometry y="30" width="230" height="8" as="geometry" />
        </mxCell>
        <mxCell id="5WrRKkwtKEH5XO7ipjnT-47" value="&lt;div style=&quot;line-height: 200%;&quot;&gt;&lt;code data-end=&quot;1636&quot; data-start=&quot;1601&quot;&gt;+ save(usuario: Usuario): Usuario&lt;/code&gt;&lt;br&gt;&lt;code data-end=&quot;1671&quot; data-start=&quot;1640&quot;&gt;+ findById(id: Long): Usuario&lt;/code&gt;&lt;br&gt;&lt;code data-end=&quot;1701&quot; data-start=&quot;1675&quot;&gt;+ delete(id: Long): void&lt;/code&gt;&lt;/div&gt;" style="text;strokeColor=none;fillColor=none;align=left;verticalAlign=top;spacingLeft=4;spacingRight=4;overflow=hidden;rotatable=0;points=[[0,0.5],[1,0.5]];portConstraint=eastwest;whiteSpace=wrap;html=1;" parent="5WrRKkwtKEH5XO7ipjnT-44" vertex="1">
          <mxGeometry y="38" width="230" height="82" as="geometry" />
        </mxCell>
        <mxCell id="5WrRKkwtKEH5XO7ipjnT-9" value="Transacao" style="swimlane;fontStyle=1;align=center;verticalAlign=top;childLayout=stackLayout;horizontal=1;startSize=26;horizontalStack=0;resizeParent=1;resizeParentMax=0;resizeLast=0;collapsible=1;marginBottom=0;whiteSpace=wrap;html=1;fillColor=#FFD966;" parent="7jp_HMipScZkQKz6TcJ7-76" vertex="1">
          <mxGeometry x="40" y="90" width="290" height="410" as="geometry" />
        </mxCell>
        <mxCell id="5WrRKkwtKEH5XO7ipjnT-10" value="&lt;div style=&quot;line-height: 200%;&quot;&gt;&lt;table&gt;&lt;tbody&gt;&lt;tr&gt;&lt;td&gt;&lt;code data-end=&quot;772&quot; data-start=&quot;761&quot;&gt;&lt;/code&gt;&lt;/td&gt;&lt;/tr&gt;&lt;/tbody&gt;&lt;/table&gt;&lt;table&gt;&lt;tbody&gt;&lt;tr&gt;&lt;td&gt;&lt;code data-end=&quot;787&quot; data-start=&quot;775&quot;&gt;- id: Long&lt;/code&gt;&lt;br&gt;&lt;code data-end=&quot;812&quot; data-start=&quot;791&quot;&gt;- descricao: String&lt;/code&gt;&lt;br&gt;&lt;code data-end=&quot;837&quot; data-start=&quot;816&quot;&gt;- valor: BigDecimal&lt;/code&gt;&lt;br&gt;&lt;code data-end=&quot;875&quot; data-start=&quot;841&quot;&gt;- tipo: String (RECEITA/DESPESA)&lt;/code&gt;&lt;br&gt;&lt;code data-end=&quot;902&quot; data-start=&quot;879&quot;&gt;- data: LocalDateTime&lt;/code&gt;&lt;/td&gt;&lt;/tr&gt;&lt;/tbody&gt;&lt;/table&gt;&lt;/div&gt;" style="text;strokeColor=none;fillColor=none;align=left;verticalAlign=top;spacingLeft=4;spacingRight=4;overflow=hidden;rotatable=0;points=[[0,0.5],[1,0.5]];portConstraint=eastwest;whiteSpace=wrap;html=1;" parent="5WrRKkwtKEH5XO7ipjnT-9" vertex="1">
          <mxGeometry y="26" width="290" height="144" as="geometry" />
        </mxCell>
        <mxCell id="5WrRKkwtKEH5XO7ipjnT-11" value="" style="line;strokeWidth=1;fillColor=none;align=left;verticalAlign=middle;spacingTop=-1;spacingLeft=3;spacingRight=3;rotatable=0;labelPosition=right;points=[];portConstraint=eastwest;strokeColor=inherit;" parent="5WrRKkwtKEH5XO7ipjnT-9" vertex="1">
          <mxGeometry y="170" width="290" height="8" as="geometry" />
        </mxCell>
        <mxCell id="5WrRKkwtKEH5XO7ipjnT-12" value="&lt;div style=&quot;line-height: 200%;&quot;&gt;&lt;code data-end=&quot;922&quot; data-start=&quot;905&quot;&gt;+ getId(): Long&lt;/code&gt;&lt;br&gt;&lt;code data-end=&quot;952&quot; data-start=&quot;926&quot;&gt;+ getDescricao(): String&lt;/code&gt;&lt;br&gt;&lt;code data-end=&quot;982&quot; data-start=&quot;956&quot;&gt;+ getValor(): BigDecimal&lt;/code&gt;&lt;br&gt;&lt;code data-end=&quot;1007&quot; data-start=&quot;986&quot;&gt;+ getTipo(): String&lt;/code&gt;&lt;br&gt;&lt;code data-end=&quot;1039&quot; data-start=&quot;1011&quot;&gt;+ getData(): LocalDateTime&lt;/code&gt;&lt;br&gt;&lt;code data-end=&quot;1084&quot; data-start=&quot;1043&quot;&gt;+ setDescricao(descricao: String): void&lt;/code&gt;&lt;br&gt;&lt;code data-end=&quot;1125&quot; data-start=&quot;1088&quot;&gt;+ setValor(valor: BigDecimal): void&lt;/code&gt;&lt;br&gt;&lt;code data-is-only-node=&quot;&quot; data-end=&quot;1160&quot; data-start=&quot;1129&quot;&gt;+ setTipo(tipo: String): void&lt;/code&gt;&lt;br&gt;&lt;code data-end=&quot;1202&quot; data-start=&quot;1164&quot;&gt;+ setData(data: LocalDateTime): void&lt;/code&gt;&lt;/div&gt;" style="text;strokeColor=none;fillColor=none;align=left;verticalAlign=top;spacingLeft=4;spacingRight=4;overflow=hidden;rotatable=0;points=[[0,0.5],[1,0.5]];portConstraint=eastwest;whiteSpace=wrap;html=1;" parent="5WrRKkwtKEH5XO7ipjnT-9" vertex="1">
          <mxGeometry y="178" width="290" height="232" as="geometry" />
        </mxCell>
        <mxCell id="5WrRKkwtKEH5XO7ipjnT-0" value="Usuario" style="swimlane;fontStyle=1;align=center;verticalAlign=top;childLayout=stackLayout;horizontal=1;startSize=26;horizontalStack=0;resizeParent=1;resizeParentMax=0;resizeLast=0;collapsible=1;marginBottom=0;whiteSpace=wrap;html=1;fillColor=#FFD966;" parent="7jp_HMipScZkQKz6TcJ7-76" vertex="1">
          <mxGeometry x="420" y="135" width="220" height="320" as="geometry" />
        </mxCell>
        <mxCell id="5WrRKkwtKEH5XO7ipjnT-1" value="&lt;div style=&quot;line-height: 200%;&quot;&gt;- id: Long&lt;br&gt;- nome: String&lt;br&gt;- email: String&lt;br&gt;- senha: String&lt;/div&gt;" style="text;strokeColor=none;fillColor=none;align=left;verticalAlign=top;spacingLeft=4;spacingRight=4;overflow=hidden;rotatable=0;points=[[0,0.5],[1,0.5]];portConstraint=eastwest;whiteSpace=wrap;html=1;" parent="5WrRKkwtKEH5XO7ipjnT-0" vertex="1">
          <mxGeometry y="26" width="220" height="104" as="geometry" />
        </mxCell>
        <mxCell id="5WrRKkwtKEH5XO7ipjnT-2" value="" style="line;strokeWidth=1;fillColor=none;align=left;verticalAlign=middle;spacingTop=-1;spacingLeft=3;spacingRight=3;rotatable=0;labelPosition=right;points=[];portConstraint=eastwest;strokeColor=inherit;" parent="5WrRKkwtKEH5XO7ipjnT-0" vertex="1">
          <mxGeometry y="130" width="220" height="8" as="geometry" />
        </mxCell>
        <mxCell id="5WrRKkwtKEH5XO7ipjnT-3" value="&lt;div style=&quot;line-height: 200%;&quot;&gt;&lt;code data-end=&quot;504&quot; data-start=&quot;487&quot;&gt;+ getId(): Long&lt;/code&gt;&lt;br&gt;&lt;code data-end=&quot;529&quot; data-start=&quot;508&quot;&gt;+ getNome(): String&lt;/code&gt;&lt;br&gt;&lt;code data-end=&quot;555&quot; data-start=&quot;533&quot;&gt;+ getEmail(): String&lt;/code&gt;&lt;br&gt;&lt;code data-end=&quot;581&quot; data-start=&quot;559&quot;&gt;+ getSenha(): String&lt;/code&gt;&lt;br&gt;&lt;code data-end=&quot;616&quot; data-start=&quot;585&quot;&gt;+ setNome(nome: String): void&lt;/code&gt;&lt;br&gt;&lt;code data-end=&quot;653&quot; data-start=&quot;620&quot;&gt;+ setEmail(email: String): void&lt;/code&gt;&lt;br&gt;&lt;code data-end=&quot;690&quot; data-start=&quot;657&quot;&gt;+ setSenha(senha: String): void&lt;/code&gt;&lt;/div&gt;" style="text;strokeColor=none;fillColor=none;align=left;verticalAlign=top;spacingLeft=4;spacingRight=4;overflow=hidden;rotatable=0;points=[[0,0.5],[1,0.5]];portConstraint=eastwest;whiteSpace=wrap;html=1;" parent="5WrRKkwtKEH5XO7ipjnT-0" vertex="1">
          <mxGeometry y="138" width="220" height="182" as="geometry" />
        </mxCell>
        <mxCell id="7jp_HMipScZkQKz6TcJ7-67" value="" style="endArrow=diamondThin;endFill=0;endSize=24;html=1;rounded=0;" edge="1" parent="7jp_HMipScZkQKz6TcJ7-76" source="5WrRKkwtKEH5XO7ipjnT-16" target="5WrRKkwtKEH5XO7ipjnT-0">
          <mxGeometry width="160" relative="1" as="geometry">
            <mxPoint x="320" y="380" as="sourcePoint" />
            <mxPoint x="480" y="380" as="targetPoint" />
          </mxGeometry>
        </mxCell>
        <mxCell id="7jp_HMipScZkQKz6TcJ7-65" value="" style="endArrow=diamondThin;endFill=1;endSize=24;html=1;rounded=0;" edge="1" parent="7jp_HMipScZkQKz6TcJ7-76" source="5WrRKkwtKEH5XO7ipjnT-9" target="5WrRKkwtKEH5XO7ipjnT-0">
          <mxGeometry width="160" relative="1" as="geometry">
            <mxPoint x="20" y="-130" as="sourcePoint" />
            <mxPoint x="180" y="-130" as="targetPoint" />
          </mxGeometry>
        </mxCell>
        <mxCell id="7jp_HMipScZkQKz6TcJ7-85" value="Use" style="endArrow=open;endSize=12;dashed=1;html=1;rounded=0;" edge="1" parent="7jp_HMipScZkQKz6TcJ7-76" source="5WrRKkwtKEH5XO7ipjnT-44" target="5WrRKkwtKEH5XO7ipjnT-0">
          <mxGeometry width="160" relative="1" as="geometry">
            <mxPoint x="240" y="580" as="sourcePoint" />
            <mxPoint x="430" y="490" as="targetPoint" />
          </mxGeometry>
        </mxCell>
        <mxCell id="7jp_HMipScZkQKz6TcJ7-86" value="Use" style="endArrow=open;endSize=12;dashed=1;html=1;rounded=0;" edge="1" parent="7jp_HMipScZkQKz6TcJ7-76" source="5WrRKkwtKEH5XO7ipjnT-48" target="5WrRKkwtKEH5XO7ipjnT-9">
          <mxGeometry width="160" relative="1" as="geometry">
            <mxPoint x="270" y="490" as="sourcePoint" />
            <mxPoint x="430" y="490" as="targetPoint" />
          </mxGeometry>
        </mxCell>
        <mxCell id="7jp_HMipScZkQKz6TcJ7-87" value="Use" style="endArrow=open;endSize=12;dashed=1;html=1;rounded=0;" edge="1" parent="7jp_HMipScZkQKz6TcJ7-76" source="5WrRKkwtKEH5XO7ipjnT-52" target="5WrRKkwtKEH5XO7ipjnT-16">
          <mxGeometry width="160" relative="1" as="geometry">
            <mxPoint x="330" y="510" as="sourcePoint" />
            <mxPoint x="490" y="510" as="targetPoint" />
          </mxGeometry>
        </mxCell>
        <mxCell id="7jp_HMipScZkQKz6TcJ7-70" value="Depende" style="endArrow=open;endSize=12;dashed=1;html=1;rounded=0;" edge="1" parent="WIyWlLk6GJQsqaUBKTNV-1" source="5WrRKkwtKEH5XO7ipjnT-100" target="5WrRKkwtKEH5XO7ipjnT-48">
          <mxGeometry width="160" relative="1" as="geometry">
            <mxPoint x="-3461" y="935" as="sourcePoint" />
            <mxPoint x="-3520" y="490" as="targetPoint" />
          </mxGeometry>
        </mxCell>
        <mxCell id="7jp_HMipScZkQKz6TcJ7-71" value="Depende" style="endArrow=open;endSize=12;dashed=1;html=1;rounded=0;" edge="1" parent="WIyWlLk6GJQsqaUBKTNV-1" source="5WrRKkwtKEH5XO7ipjnT-104" target="5WrRKkwtKEH5XO7ipjnT-52">
          <mxGeometry width="160" relative="1" as="geometry">
            <mxPoint x="-3021" y="899.5" as="sourcePoint" />
            <mxPoint x="-3080" y="454.5" as="targetPoint" />
          </mxGeometry>
        </mxCell>
        <mxCell id="7jp_HMipScZkQKz6TcJ7-69" value="Depende" style="endArrow=open;endSize=12;dashed=1;html=1;rounded=0;" edge="1" parent="WIyWlLk6GJQsqaUBKTNV-1" source="5WrRKkwtKEH5XO7ipjnT-96" target="5WrRKkwtKEH5XO7ipjnT-44">
          <mxGeometry width="160" relative="1" as="geometry">
            <mxPoint x="-3620" y="600" as="sourcePoint" />
            <mxPoint x="-3460" y="600" as="targetPoint" />
          </mxGeometry>
        </mxCell>
      </root>
    </mxGraphModel>
  </diagram>
</mxfile>
